HIERARCHY
ROOT Hips
{
	OFFSET 0.000000 0.000000 0.000000
	CHANNELS 6 Xposition Yposition Zposition Xrotation Yrotation Zrotation
	JOINT LeftUpLeg_virtual
	{
		OFFSET 0.000000 0.000000 0.000000
		CHANNELS 3 Xrotation Yrotation Zrotation
		JOINT LeftUpLeg
		{
			OFFSET 10.205400 -3.823500 0.155100
			CHANNELS 3 Xrotation Yrotation Zrotation
			JOINT LeftLeg
			{
				OFFSET 0.708757 -12.982077 0.567790
				CHANNELS 3 Xrotation Yrotation Zrotation
				JOINT LeftFoot
				{
					OFFSET -0.708756 -10.717838 -2.184338
					CHANNELS 3 Xrotation Yrotation Zrotation
					JOINT LeftToeBase
					{
						OFFSET 0.108149 -7.191104 7.560241
						CHANNELS 3 Xrotation Yrotation Zrotation
						JOINT LeftToe_End
						{
							OFFSET 0.070230 0.081724 4.490308
							CHANNELS 3 Xrotation Yrotation Zrotation
							End Site
							{
								OFFSET 0 0 0
							}
						}
					}
				}
			}
		}
	}
	JOINT RightUpLeg_virtual
	{
		OFFSET 0.000000 0.000000 0.000000
		CHANNELS 3 Xrotation Yrotation Zrotation
		JOINT RightUpLeg
		{
			OFFSET -10.205400 -3.823500 0.005500
			CHANNELS 3 Xrotation Yrotation Zrotation
			JOINT RightLeg
			{
				OFFSET -0.708756 -12.982134 0.610632
				CHANNELS 3 Xrotation Yrotation Zrotation
				JOINT RightFoot
				{
					OFFSET 0.708754 -10.717769 -1.945823
					CHANNELS 3 Xrotation Yrotation Zrotation
					JOINT RightToeBase
					{
						OFFSET -0.108140 -7.191069 7.372968
						CHANNELS 3 Xrotation Yrotation Zrotation
						JOINT RightToe_End
						{
							OFFSET -0.070227 0.081735 4.479403
							CHANNELS 3 Xrotation Yrotation Zrotation
							End Site
							{
								OFFSET 0 0 0
							}
						}
					}
				}
			}
		}
	}
	JOINT Spine_virtual
	{
		OFFSET 0.000000 0.000000 0.000000
		CHANNELS 3 Xrotation Yrotation Zrotation
		JOINT Spine
		{
			OFFSET 0.000000 6.876099 0.125700
			CHANNELS 3 Xrotation Yrotation Zrotation
			JOINT Spine1
			{
				OFFSET 0.000000 5.730043 0.104720
				CHANNELS 3 Xrotation Yrotation Zrotation
				JOINT Spine1_split
				{
					OFFSET 0.000000 5.730043 0.104720
					CHANNELS 3 Xrotation Yrotation Zrotation
					JOINT Spine2
					{
						OFFSET 0.000000 5.730043 0.104720
						CHANNELS 3 Xrotation Yrotation Zrotation
						JOINT Neck_virtual
						{
							OFFSET 0.000000 0.000000 0.000000
							CHANNELS 3 Xrotation Yrotation Zrotation
							JOINT Neck
							{
								OFFSET 0.000000 10.314075 0.188496
								CHANNELS 3 Xrotation Yrotation Zrotation
								JOINT Head
								{
									OFFSET 0.000000 7.643700 -2.377400
									CHANNELS 3 Xrotation Yrotation Zrotation
									JOINT HeadTop_End
									{
										OFFSET 0.000000 43.788605 -13.619600
										CHANNELS 3 Xrotation Yrotation Zrotation
										End Site
										{
											OFFSET 0 0 0
										}
									}
								}
							}
						}
						JOINT LeftShoulder_virtual
						{
							OFFSET 0.000000 0.000000 0.000000
							CHANNELS 3 Xrotation Yrotation Zrotation
							JOINT LeftShoulder
							{
								OFFSET 2.196100 4.412489 0.087492
								CHANNELS 3 Xrotation Yrotation Zrotation
								JOINT LeftShoulder_split
								{
									OFFSET 2.196100 4.412489 0.087492
									CHANNELS 3 Xrotation Yrotation Zrotation
									JOINT LeftArm
									{
										OFFSET 8.771219 -2.981674 -0.026999
										CHANNELS 3 Xrotation Yrotation Zrotation
										JOINT LeftForeArm
										{
											OFFSET 8.512804 0.000000 -0.000000
											CHANNELS 3 Xrotation Yrotation Zrotation
											JOINT LeftHand
											{
												OFFSET 18.484802 0.000000 -0.000000
												CHANNELS 3 Xrotation Yrotation Zrotation
												End Site
												{
													OFFSET 0 0 0
												}
											}
										}
									}
								}
							}
						}
						JOINT RightShoulder_virtual
						{
							OFFSET 0.000000 0.000000 0.000000
							CHANNELS 3 Xrotation Yrotation Zrotation
							JOINT RightShoulder
							{
								OFFSET -2.196100 4.412496 0.070690
								CHANNELS 3 Xrotation Yrotation Zrotation
								JOINT RightShoulder_split
								{
									OFFSET -2.196100 4.412496 0.070690
									CHANNELS 3 Xrotation Yrotation Zrotation
									JOINT RightArm
									{
										OFFSET -8.771282 -2.981682 -0.094208
										CHANNELS 3 Xrotation Yrotation Zrotation
										JOINT RightForeArm
										{
											OFFSET -8.494598 0.000000 0.000000
											CHANNELS 3 Xrotation Yrotation Zrotation
											JOINT RightHand
											{
												OFFSET -18.483803 0.000000 0.000001
												CHANNELS 3 Xrotation Yrotation Zrotation
												End Site
												{
													OFFSET 0 0 0
												}
											}
										}
									}
								}
							}
						}
					}
				}
			}
		}
	}
}
MOTION
Frames: 6
Frame Time: 0.03333333
-0.268896 28.598198 -0.034538 0.000000 0.000000 0.000000 3.000806 -58.172202 6.374425 -37.008069 4.712527 33.451046 48.226825 -12.868898 -11.599430 -12.628875 -0.311791 -14.432980 -0.327625 1.238411 0.837241 0.000000 0.000000 0.000000 3.000806 -58.172202 6.374425 -31.640954 -2.217354 -36.234427 60.434422 9.478173 -7.241524 -30.093270 -4.063179 28.285840 -0.322747 -0.997410 -0.837178 0.000000 0.000000 0.000000 3.000806 -58.172202 6.374425 11.189901 0.063074 -2.592187 8.434588 0.027703 -5.592321 0.000000 0.000000 0.000000 0.000000 0.000000 0.000000 8.457054 0.027853 -5.591869 -21.555652 25.063367 12.062567 -0.294038 25.465749 -3.208974 0.000000 0.000000 0.000000 8.457054 0.027853 -5.591869 -6.221675 -11.503862 -4.023816 0.000000 0.000000 0.000000 -23.062185 9.568558 -36.639607 0.046109 -43.169128 -0.011151 0.000000 0.000000 0.000000 8.457054 0.027853 -5.591869 -5.488235 10.658262 2.466518 0.000000 0.000000 0.000000 -41.473814 -26.755569 30.079088 -155.044570 68.137045 156.691561 0.000000 0.000000 0.000000 
-0.296456 28.511929 0.027182 0.000000 0.000000 0.000000 1.743981 -58.104754 5.146960 -36.643104 4.384447 33.636448 49.275618 -13.237247 -11.491661 -13.365447 -0.145978 -14.373010 -0.327768 1.244753 0.837239 0.000000 0.000000 0.000000 1.743981 -58.104754 5.146960 -31.260970 -3.027109 -37.176102 60.597008 10.741687 -6.492695 -30.407664 -3.743342 27.425055 -0.356230 -0.991256 -0.912689 0.000000 0.000000 0.000000 1.743981 -58.104754 5.146960 11.140868 0.012629 -2.515258 8.334205 -0.045754 -5.404250 0.000000 0.000000 0.000000 0.000000 0.000000 0.000000 8.356664 -0.045664 -5.403786 -21.836682 24.626030 12.153086 0.665321 24.715291 -2.781584 0.000000 0.000000 0.000000 8.356664 -0.045664 -5.403786 -6.328840 -11.488488 -3.983640 0.000000 0.000000 0.000000 -22.131667 10.073043 -36.144019 2.769393 -44.886893 0.926420 0.000000 0.000000 0.000000 8.356664 -0.045664 -5.403786 -5.548061 9.866013 1.937109 0.000000 0.000000 0.000000 -37.030540 -24.874084 32.856922 -164.018387 70.090828 164.779229 0.000000 0.000000 0.000000 
-0.415150 28.344486 0.190983 0.000000 0.000000 0.000000 -0.015715 -57.808986 3.410795 -36.211976 3.951632 34.123157 51.044968 -14.189434 -11.656603 -14.735775 0.024951 -13.939187 -0.327765 1.244802 0.837234 0.000000 0.000000 0.000000 -0.015715 -57.808986 3.410795 -29.811809 -3.785619 -37.877620 60.932111 11.385458 -6.253647 -31.352549 -3.898070 27.349882 -0.459383 -0.987810 -1.094234 0.000000 0.000000 0.000000 -0.015715 -57.808986 3.410795 10.986882 -0.102322 -2.312693 8.021425 -0.218861 -4.943916 0.000000 0.000000 0.000000 0.000000 0.000000 0.000000 8.043898 -0.218788 -4.943426 -22.139454 23.571241 12.309608 3.256180 23.328153 -2.898962 0.000000 0.000000 0.000000 8.043898 -0.218788 -4.943426 -6.517731 -11.266679 -3.808853 0.000000 0.000000 0.000000 -19.916944 11.490703 -34.664255 8.966800 -49.187901 3.756256 0.000000 0.000000 0.000000 8.043898 -0.218788 -4.943426 -5.677149 8.006192 0.598007 0.000000 0.000000 0.000000 -27.295039 -19.926474 37.715478 167.963204 72.488265 -168.579574 0.000000 0.000000 0.000000 
-0.590852 28.240490 0.381508 0.000000 0.000000 0.000000 -1.821737 -57.278902 1.543422 -35.645302 3.550216 34.573250 52.471631 -15.207292 -11.693257 -15.886863 0.139248 -13.488230 -0.327758 1.244742 0.837235 0.000000 0.000000 0.000000 -1.821737 -57.278902 1.543422 -27.361060 -4.558412 -37.800524 60.648713 10.986892 -6.513741 -32.288101 -4.350939 27.968213 -0.786444 -0.973265 -1.324368 0.000000 0.000000 0.000000 -1.821737 -57.278902 1.543422 10.732449 -0.238070 -2.057216 7.508716 -0.422835 -4.366852 0.000000 0.000000 0.000000 0.000000 0.000000 0.000000 7.531184 -0.422713 -4.366381 -21.736008 22.273414 12.364529 5.200205 21.513153 -1.423721 0.000000 0.000000 0.000000 7.531184 -0.422713 -4.366381 -6.671760 -10.584859 -3.418098 0.000000 0.000000 0.000000 -17.246750 13.730732 -32.214652 15.504879 -54.870704 8.081117 0.000000 0.000000 0.000000 7.531184 -0.422713 -4.366381 -5.864157 5.845906 -1.136023 0.000000 0.000000 0.000000 -16.889869 -14.076082 40.489061 134.153207 69.231166 -135.011106 0.000000 0.000000 0.000000 
-0.834099 28.375614 0.529657 0.000000 0.000000 0.000000 -3.255281 -56.385305 -0.182130 -34.725450 3.102676 34.682037 52.397646 -15.649671 -11.394917 -15.980023 0.177726 -13.362802 -0.458551 1.243189 0.680159 0.000000 0.000000 0.000000 -3.255281 -56.385305 -0.182130 -24.039667 -6.173636 -36.726982 58.584732 9.677955 -7.061523 -32.524995 -4.727235 28.840330 -0.979911 -0.970302 -1.321853 0.000000 0.000000 0.000000 -3.255281 -56.385305 -0.182130 10.321508 -0.364466 -1.797273 6.683865 -0.605023 -3.764423 0.000000 0.000000 0.000000 0.000000 0.000000 0.000000 6.706351 -0.604947 -3.763946 -19.460758 20.947642 12.091848 5.148828 19.945776 -0.554098 0.000000 0.000000 0.000000 6.706351 -0.604947 -3.763946 -6.731942 -8.817965 -2.534455 0.000000 0.000000 0.000000 -14.611223 17.347639 -27.846784 15.807385 -62.632561 10.018918 0.000000 0.000000 0.000000 6.706351 -0.604947 -3.763946 -6.149592 3.829292 -2.217331 0.000000 0.000000 0.000000 -7.965860 -10.783708 39.300796 117.184449 60.610457 -116.483153 0.000000 0.000000 0.000000 
-1.150250 28.707348 0.662195 0.000000 0.000000 0.000000 -4.746856 -54.852204 -1.979336 -33.300369 2.707658 34.226334 51.006408 -15.640819 -10.782852 -15.455137 0.050997 -13.159684 -0.518405 1.242848 0.609475 0.000000 0.000000 0.000000 -4.746856 -54.852204 -1.979336 -19.317583 -8.663816 -34.987630 54.622000 7.644303 -7.764311 -32.118698 -5.051781 29.997019 -1.119721 -0.975540 -1.176481 0.000000 0.000000 0.000000 -4.746856 -54.852204 -1.979336 9.888986 -0.489554 -1.516289 5.818352 -0.783987 -3.101358 0.000000 0.000000 0.000000 0.000000 0.000000 0.000000 5.840823 -0.783888 -3.100885 -15.781717 19.493867 11.573659 5.665781 18.065570 0.579110 0.000000 0.000000 0.000000 5.840823 -0.783888 -3.100885 -6.706129 -6.010134 -0.294619 0.000000 0.000000 0.000000 -12.280392 22.647357 -22.166809 10.216810 -71.763425 7.796405 0.000000 0.000000 0.000000 5.840823 -0.783888 -3.100885 -6.491977 1.459263 -4.091239 0.000000 0.000000 0.000000 0.842983 -11.247513 37.125415 112.048755 55.607374 -111.143044 0.000000 0.000000 0.000000 
